# xmcd CD database file
#
# Track frame offsets:
#	150
#	9513
#	26235
#	40430
#	52975
#	68486
#	82749
#	102549
#	117656
#	130407
#	143548
#	154260
#	166828
#	178535
#	192350
#	204889
#	218030
#	233646
#	243479
#	255662
#	272820
#	293303
#	307741
#	320254
#	332763
#	345220
#
# Disc length: 4788 seconds
#
# Revision: 3
# Processed by: cddbd v1.5.2PL0 Copyright (c) Steve Scherf et al.
# Submitted via: CDex 1.51
#
DISCID=6012b21a
DTITLE=Various Artist - The Sound Stage 7 Story CD3: Deeper Soul
DYEAR=2005
DGENRE=Soul/R&B
TTITLE0=Bobby King - What Made You Change Your Mind
TTITLE1=Willie Hobbs - Judge Of Hearts
TTITLE2=Joe Simon - Farther On Down The Road
TTITLE3=Sam Baker - Hold Back Girl
TTITLE4=Ella Washington - Sit Down And Cry
TTITLE5=Jackey Beavers - Hey, Girl
TTITLE6=Fenton Robinson - Mellow Fellow
TTITLE7=Earl Gaines - That's How Strong My Love Is
TTITLE8=Ann Sexton - Have A Little Mercy
TTITLE9=Roscoe Shelton - I'm Ready To Love You Now
TTITLE10=Jimmy Church - I Don't Care Who Knows
TTITLE11=Sam Baker - I Love You
TTITLE12=Ella Washington - All The Time
TTITLE13=Joe Simon - Yours Love
TTITLE14=Earl Gaines - I Can't Face It
TTITLE15=Ella Washington - I Don't Care About Your Past
TTITLE16=Fenton Robinson - The Sky Is Crying
TTITLE17=Sam Baker - Sometimes You Have To Cry
TTITLE18=Ella Washington - Doin' The Best I Can
TTITLE19=Billy Mills - Easy Goin' Fellow
TTITLE20=Charles Smith - The Only Time You Say You Love Me
TTITLE21=Ann Sexton - I Want To Be Loved
TTITLE22=Earl Gaines - I'll Take Care Of You
TTITLE23=Sam Baker - Let Me Come On Home
TTITLE24=Joe Simon - Moon Walk [Part 1]
TTITLE25=Joe Simon - Moon Walk [Part 2]
EXTD=CD 3 von 3 im Box-Set "The Sound Stage 7 Story" von CHARLY YEAR: 2005
EXTT0=
EXTT1=
EXTT2=
EXTT3=
EXTT4=
EXTT5=
EXTT6=
EXTT7=
EXTT8=
EXTT9=
EXTT10=
EXTT11=
EXTT12=
EXTT13=
EXTT14=
EXTT15=
EXTT16=
EXTT17=
EXTT18=
EXTT19=
EXTT20=
EXTT21=
EXTT22=
EXTT23=
EXTT24=
EXTT25=
PLAYORDER=
